<svg xmlns="http://www.w3.org/2000/svg" viewBox="0 0 3395 3222"><path fill="#E9272B" d="M456.5,3220.3L457.1,3218.5L571.5,2887.1L685.9,2555.6L685.6,2555.3L685.4,2555.0L343.0,2685.0L0.6,2814.9L0.3,2814.7L0.1,2814.5L24.6,2711.5L49.1,2608.5L76.9,2490.0L104.8,2371.5L110.5,2346.5L116.2,2321.5L117.4,2320.4L118.5,2319.2L131.0,2316.5L143.5,2313.8L185.5,2303.9L227.5,2293.9L357.0,2262.5L486.5,2231.0L657.0,2189.2L827.5,2147.3L1198.7,1078.9L1569.9,10.5L1571.7,5.2L1573.5,-0.0L1655.9,57.3L1738.4,114.7L1739.1,116.1L1739.9,117.5L1780.1,1011.5L1820.3,1905.5L1820.7,1905.9L1821.0,1906.4L1857.8,1897.4L1894.5,1888.4L1894.8,1884.5L1895.1,1880.5L1843.6,1022.0L1792.1,163.5L1791.6,157.6L1791.0,151.8L1792.3,152.3L1793.5,152.8L1871.1,206.4L1948.7,260.0L1949.4,265.7L1950.0,271.5L2033.5,1052.4L2117.1,1833.4L2117.4,1833.7L2117.7,1834.0L2155.0,1825.0L2192.4,1815.9L2192.6,1815.7L2192.9,1815.5L2087.9,1050.5L1983.0,285.5L1983.3,284.7L1983.5,283.9L2056.0,333.1L2128.5,382.2L2129.7,383.4L2130.9,384.5L2270.6,1073.0L2410.3,1761.5L2410.9,1762.2L2411.5,1762.8L2900.4,1644.4L3389.3,1526.0L3389.6,1526.3L3389.9,1526.6L2914.2,1707.9L2438.5,1889.2L2437.6,1890.0L2436.8,1890.8L2571.5,2554.5L2706.2,3218.1L2705.9,3218.4L2705.5,3218.7L2545.6,3220.4L2385.7,3222.0L2385.2,3221.5L2384.7,3221.1L2299.7,2597.8L2214.7,1974.5L2214.5,1974.3L2214.4,1974.0L2174.9,1988.9L2135.5,2003.7L2135.8,2007.1L2136.1,2010.5L2200.6,2614.6L2265.0,3218.7L2265.0,3220.3L2265.0,3222.0L2120.5,3222.0L1976.1,3222.0L1975.6,3218.8L1975.1,3215.5L1941.6,2653.6L1908.1,2091.8L1907.6,2091.3L1907.1,2090.7L1868.8,2105.3L1830.5,2119.9L1830.8,2128.7L1831.1,2137.5L1855.5,2679.4L1880.0,3221.2L1880.0,3221.6L1880.0,3222.0L1708.5,3222.0L1537.0,3222.0L1537.6,3179.8L1538.2,3137.5L1543.5,2682.5L1548.7,2227.5L1548.5,2227.3L1548.4,2227.0L1327.7,2310.9L1107.0,2394.7L1106.5,2395.2L1106.0,2395.7L991.1,2808.6L876.3,3221.5L666.0,3221.8L455.8,3222.0L456.5,3220.3ZM1382.5,2013.0L1549.5,1972.7L1550.4,1971.9L1551.3,1971.1L1558.1,1362.3L1564.9,753.5L1564.7,752.7L1564.5,751.9L1383.1,1402.2L1201.6,2052.5L1201.2,2054.6L1200.8,2056.8L1208.2,2055.1L1215.5,2053.3L1382.5,2013.0Z"/></svg>
